<?xml version="1.0" encoding="utf-8"?>
<!-- Generator: Adobe Illustrator 16.0.4, SVG Export Plug-In . SVG Version: 6.00 Build 0)  -->
<!DOCTYPE svg PUBLIC "-//W3C//DTD SVG 1.1//EN" "http://www.w3.org/Graphics/SVG/1.1/DTD/svg11.dtd">
<svg version="1.1" id="Layer_1" xmlns="http://www.w3.org/2000/svg" xmlns:xlink="http://www.w3.org/1999/xlink" x="0px" y="0px"
	 width="65px" height="56px" viewBox="0 0 65 56" enable-background="new 0 0 65 56" xml:space="preserve">
<rect x="51.439" y="41.865" fill="#C59A73" width="3.103" height="11.053"/>
<rect x="51.439" y="52.918" fill="#754A23" width="3.103" height="1.512"/>
<rect x="44.92" y="41.865" fill="#C59A73" width="3.102" height="11.053"/>
<rect x="44.92" y="52.918" fill="#754A23" width="3.102" height="1.512"/>
<rect x="27.506" y="41.865" fill="#C59A73" width="3.101" height="11.053"/>
<rect x="27.506" y="52.918" fill="#754A23" width="3.101" height="1.512"/>
<rect x="20.191" y="41.865" fill="#C59A73" width="3.102" height="11.053"/>
<rect x="20.191" y="52.918" fill="#754A23" width="3.102" height="1.512"/>
<path fill="#FFFFFF" d="M16.465,24.229c0,0-7.121-10.803,0-17.678c7.12-6.875,15.959-6.139,18.661-3.192
	c0,0,10.804-7.121,16.205,5.402c0,0,16.696-0.246,10.312,14.24c0,0,5.156,6.875-1.475,9.085c0,0-0.98,14.73-16.204,12.768
	c0,0-6.385,7.611-13.013,1.72c0,0-17.433,4.419-13.996-12.276C16.957,34.296,10.818,28.648,16.465,24.229z"/>
<ellipse transform="matrix(-0.3572 0.934 -0.934 -0.3572 74.935 -0.9118)" fill="#A37953" cx="37.781" cy="25.33" rx="2.942" ry="5.049"/>
<ellipse transform="matrix(-0.3573 -0.934 0.934 -0.3573 -15.5951 39.9286)" fill="#C2936B" cx="5.94" cy="25.33" rx="2.942" ry="5.049"/>
<path fill="#C59A73" d="M21.861,10.139v31.726c0,0,13.836-0.954,13.12-18.607c0,0,3.34,3.102,7.634,2.744
	c0,0-0.716-5.129-10.947-11.813C26.274,11.093,25.373,11.511,21.861,10.139z"/>
<path fill="#E3C79B" d="M21.861,10.139v31.726c0,0-13.835-0.954-13.12-18.607c0,0-3.339,3.102-7.633,2.744
	c0,0,0.715-5.129,10.948-11.813C17.45,11.093,18.35,11.511,21.861,10.139z"/>
<circle fill="#404752" cx="17.807" cy="30.019" r="1.988"/>
<circle fill="#404752" cx="25.838" cy="30.019" r="1.988"/>
<path fill="#69B4E4" d="M14.862,12.686c0,0,5.457,3.529,13.619-0.182c0,0,1.859,0.22,3.541,1.405
	c1.681,1.185,2.842,2.543,2.842,2.543s-12.064,8.873-26.002,0C8.861,16.452,10.297,14.402,14.862,12.686z"/>
</svg>
