<?xml version="1.0" encoding="utf-8"?>
<!-- Generator: Adobe Illustrator 16.0.4, SVG Export Plug-In . SVG Version: 6.00 Build 0)  -->
<!DOCTYPE svg PUBLIC "-//W3C//DTD SVG 1.1//EN" "http://www.w3.org/Graphics/SVG/1.1/DTD/svg11.dtd">
<svg version="1.1" xmlns="http://www.w3.org/2000/svg" xmlns:xlink="http://www.w3.org/1999/xlink" x="0px" y="0px" width="65px"
	 height="56px" viewBox="0 0 270 230" enable-background="new 0 0 270 230" xml:space="preserve">
<g id="Layer_1">
	<rect x="212.006" y="174.684" fill="#C59A73" width="12.785" height="45.568"/>
	<rect x="212.006" y="220.252" fill="#754A23" width="12.785" height="6.228"/>
	<rect x="185.123" y="174.684" fill="#C59A73" width="12.784" height="45.568"/>
	<rect x="185.123" y="220.252" fill="#754A23" width="12.784" height="6.228"/>
	<rect x="113.332" y="174.684" fill="#C59A73" width="12.785" height="45.568"/>
	<rect x="113.332" y="220.252" fill="#754A23" width="12.785" height="6.228"/>
	<rect x="83.175" y="174.684" fill="#C59A73" width="12.785" height="45.568"/>
	<rect x="83.175" y="220.252" fill="#754A23" width="12.785" height="6.228"/>
	<path fill="#FFFFFF" d="M67.813,101.972c0,0-29.357-44.54,0-72.882c29.354-28.345,65.794-25.308,76.931-13.159
		c0,0,44.539-29.357,66.809,22.27c0,0,68.837-1.012,42.519,58.71c0,0,21.255,28.343-6.077,37.456c0,0-4.049,60.735-66.809,52.637
		c0,0-26.319,31.382-53.648,7.088c0,0-71.872,18.217-57.7-50.616C69.837,143.475,44.529,120.194,67.813,101.972z"/>
	<path fill="#A37953" d="M136.254,99.072c2.394-6.256,13.039-7.999,23.775-3.892c10.737,4.106,17.503,12.508,15.105,18.768
		c-2.394,6.254-13.038,7.998-23.771,3.892C140.622,113.733,133.861,105.33,136.254,99.072z"/>
	<path fill="#C2936B" d="M43.865,99.072c-2.394-6.256-13.039-7.999-23.776-3.892C9.352,99.287,2.587,107.688,4.984,113.948
		c2.394,6.254,13.039,7.998,23.772,3.892C39.497,113.733,46.258,105.33,43.865,99.072z"/>
	<path fill="#C59A73" d="M90.06,43.886v130.798c0,0,57.039-3.935,54.089-76.709c0,0,13.769,12.785,31.471,11.31
		c0,0-2.951-21.144-45.135-48.701C108.249,47.817,104.534,49.542,90.06,43.886z"/>
	<path fill="#E3C79B" d="M90.06,43.886v130.798c0,0-57.04-3.935-54.089-76.709c0,0-13.768,12.785-31.47,11.31
		c0,0,2.95-21.144,45.135-48.701C71.87,47.817,75.584,49.542,90.06,43.886z"/>
	<path fill="#404752" d="M81.539,125.842c0,4.525-3.668,8.193-8.198,8.193c-4.525,0-8.194-3.668-8.194-8.193
		c0-4.529,3.668-8.198,8.194-8.198C77.87,117.644,81.539,121.312,81.539,125.842z"/>
	<path fill="#404752" d="M114.649,125.842c0,4.525-3.669,8.193-8.198,8.193c-4.525,0-8.194-3.668-8.194-8.193
		c0-4.529,3.668-8.198,8.194-8.198C110.98,117.644,114.649,121.312,114.649,125.842z"/>
</g>
<g id="Layer_2">
	<path fill="#69B4E4" d="M61.203,54.385c0,0,22.495,14.547,56.146-0.753c0,0,7.666,0.907,14.596,5.793s11.713,10.484,11.713,10.484
		s-49.733,36.578-107.196,0C36.461,69.91,42.382,61.46,61.203,54.385z"/>
</g>
</svg>
