<?xml version="1.0" encoding="UTF-8" standalone="no"?>
<!-- Created with Inkscape (http://www.inkscape.org/) -->

<svg
   xmlns:dc="http://purl.org/dc/elements/1.1/"
   xmlns:cc="http://creativecommons.org/ns#"
   xmlns:rdf="http://www.w3.org/1999/02/22-rdf-syntax-ns#"
   xmlns:svg="http://www.w3.org/2000/svg"
   xmlns="http://www.w3.org/2000/svg"
   version="1.1"
   width="205px"
   height="300px"
   id="svg2">
  <metadata
     id="metadata76">
    <rdf:RDF>
      <cc:Work
         rdf:about="">
        <dc:format>image/svg+xml</dc:format>
        <dc:type
           rdf:resource="http://purl.org/dc/dcmitype/StillImage" />
        <dc:title></dc:title>
      </cc:Work>
    </rdf:RDF>
  </metadata>
  <defs
     id="defs4">
    <filter
       style="color-interpolation-filters:sRGB"
       id="filter3706">
      <feGaussianBlur
         id="feGaussianBlur3708"
         stdDeviation="5.340000000000004" />
    </filter>
  </defs>
  <path
     d="m 20.38379958156315,6.5 0,44.440311418685098 17.9995674740485,14.64792387543258 0,114.08001730103802 -16.01340830449818,0 L 6.356550446615075,293.5 l 71.377595155709286,0 0,-71.1293252595155 c 0,-5.2919622145329 1.64946546712802,-10.2384121799308 4.46885813148786,-14.2755190311419 4.46397217993082,-6.3919368858132 11.85522519031157,-10.5514705882353 20.23399653979257,-10.5514705882353 8.3844517647058,0 15.8590042906574,4.1522246366782 20.3581314878893,10.5514705882353 2.8366325259512,4.0346440138408 4.4688581314879,8.9892372318339 4.4688581314879,14.2755190311419 l 0,71.1293252595155 71.3775951557092,0 -16.1375432525951,-113.8317474048443 -16.0134083044984,0 0,-114.08001730103802 17.9995674740485,-14.64792387543258 0,-44.440311418685098 -35.9991349480968,0 0,23.213235294117648 -25.0752595155711,0 0,-23.213235294117648 -41.95761245674734,0 0,23.213235294117648 -25.07525951557086,0 0,-23.213235294117648 z"
     id="path4453"
     style="fill:#e9e9e9;stroke:#000000;stroke-width:3;stroke-linecap:round;stroke-linejoin:round" />
  <path
     d="m 20.43408913173607,50.98513505882358 17.9880874740486,14.6479238754325 62.66050145328723,0 65.4090676816609,0 17.9880874740488,-14.6479238754325 -83.3971551557092,0 z"
     id="path4455"
     style="fill:#e9e9e9;stroke:#000000;stroke-width:3;stroke-linecap:round;stroke-linejoin:round" />
  <path
     d="m 20.38379958156315,6.5 c 0,14.813438463667811 0,29.62687295501729 0,44.440311418685098 54.70212055363322,0 109.40428083044983,0 164.10640138408305,0 0,-14.81343846366775 0,-29.62687295501724 0,-44.440311418685098 l -35.9991349480968,0 0,23.213235294117648 -25.0752595155711,0 0,-23.213235294117648 -41.95761245674727,0 0,23.213235294117648 -25.07525951557088,0 0,-23.213235294117648 z"
     id="path4457"
     style="fill:#e9e9e9;stroke:#000000;stroke-width:3;stroke-linecap:round;stroke-linejoin:round" />
  <path
     d="m 70.41018366460821,151.2488214117647 0,28.4268991418685 c 21.35121107266421,0 42.70242214532868,0 64.05363321799288,0 l 0,-28.4268991418685 c -21.3512110726642,0 -42.70242214532867,0 -64.05363321799288,0 z"
     id="path4459"
     style="fill:#e9e9e9;stroke:#000000;stroke-width:3;stroke-linecap:round;stroke-linejoin:round" />
  <path
     d="m 38.42221632896804,65.63305893425608 0,28.55103806228375 32.02681660899634,0 32.02681660899663,0 0,-28.55103806228375 -32.02681660899663,0 -32.02681660899634,0 z"
     id="path4461"
     style="fill:#e9e9e9;stroke:#000000;stroke-width:3;stroke-linecap:round;stroke-linejoin:round" />
  <path
     d="m 38.38336705561165,94.1392733564014 0,28.4269031141868 32.02681660899656,0 0,-28.4269031141868 -32.02681660899656,0 z"
     id="path4463"
     style="fill:#e9e9e9;stroke:#000000;stroke-width:3;stroke-linecap:round;stroke-linejoin:round" />
  <path
     d="m 70.3946518999021,94.1392733564014 0,28.55103806228379 c 21.35121107266445,0 42.7024221453289,0 64.0536332179931,0 l 0,-28.55103806228379 c -21.3512110726642,0 -42.70242214532873,0 -64.05363321799316,0 z"
     id="path4465"
     style="fill:#e9e9e9;stroke:#000000;stroke-width:3;stroke-linecap:round;stroke-linejoin:round" />
  <path
     d="m 38.42217660578467,122.697795266436 0,28.5510380622837 32.02681660899656,0 32.02681660899657,0 0,-28.5510380622837 -32.02681660899657,0 -32.02681660899654,0 z"
     id="path4467"
     style="fill:#e9e9e9;stroke:#000000;stroke-width:3;stroke-linecap:round;stroke-linejoin:round" />
  <path
     d="m 22.36995875111347,179.6682525951557 -3.97231833910041,28.4269031141869 19.98572664359859,0 0,-28.4269031141869 -16.0134083044982,0 z"
     id="path4469"
     style="fill:#e9e9e9;stroke:#000000;stroke-width:3;stroke-linecap:round;stroke-linejoin:round" />
  <path
     d="m 38.38336705561165,151.2413494809688 0,28.4269031141869 32.02681660899656,0 0,-28.4269031141869 -32.02681660899656,0 z"
     id="path4471"
     style="fill:#e9e9e9;stroke:#000000;stroke-width:3;stroke-linecap:round;stroke-linejoin:round" />
  <path
     d="m 18.39764041201306,208.0951557093426 -3.97231833910041,28.4269031141868 23.958044982699,0 32.02681660899656,0 0,-28.4269031141868 -32.02681660899656,0 -19.98572664359859,0 z"
     id="path4473"
     style="fill:#e9e9e9;stroke:#000000;stroke-width:3;stroke-linecap:round;stroke-linejoin:round" />
  <path
     d="m 14.42532207291265,236.5220588235294 -4.09645328719716,28.5510380622837 28.05449826989616,0 0,-28.5510380622837 -23.958044982699,0 z"
     id="path4475"
     style="fill:#e9e9e9;stroke:#000000;stroke-width:3;stroke-linecap:round;stroke-linejoin:round" />
  <path
     d="M 10.32886878571549,265.0730968858131 6.356550446615075,293.5 l 32.026816608996576,0 32.02681660899656,0 0,-28.4269031141869 -32.02681660899656,0 -28.05449826989616,0 z"
     id="path4477"
     style="fill:#e9e9e9;stroke:#000000;stroke-width:3;stroke-linecap:round;stroke-linejoin:round" />
  <path
     d="m 166.4917060175494,65.63304701730099 0,28.55103806228374 -32.0268166089966,0 -32.0268166089965,0 0,-28.55103806228374 32.0268166089965,0 32.0268166089966,0 z"
     id="path4479"
     style="fill:#e9e9e9;stroke:#000000;stroke-width:3;stroke-linecap:round;stroke-linejoin:round" />
  <path
     d="m 134.4638168826011,94.1392733564014 0,28.4269031141868 32.0268166089966,0 0,-28.4269031141868 -32.0268166089966,0 z"
     id="path4481"
     style="fill:#e9e9e9;stroke:#000000;stroke-width:3;stroke-linecap:round;stroke-linejoin:round" />
  <path
     d="m 166.4917457407325,122.6977833494809 0,28.5510380622838 -32.0268166089965,0 -32.0268166089964,0 0,-28.5510380622838 32.0268166089964,0 32.0268166089965,0 z"
     id="path4483"
     style="fill:#e9e9e9;stroke:#000000;stroke-width:3;stroke-linecap:round;stroke-linejoin:round" />
  <path
     d="m 166.4906334915977,179.6682525951557 0,28.4269031141869 19.9857266435986,0 -3.9723183391002,-28.4269031141869 -16.0134083044984,0 z"
     id="path4485"
     style="fill:#e9e9e9;stroke:#000000;stroke-width:3;stroke-linecap:round;stroke-linejoin:round" />
  <path
     d="m 134.4638168826011,151.2413494809688 0,28.4269031141869 32.0268166089966,0 0,-28.4269031141869 -32.0268166089966,0 z"
     id="path4487"
     style="fill:#e9e9e9;stroke:#000000;stroke-width:3;stroke-linecap:round;stroke-linejoin:round" />
  <path
     d="m 134.4638168826011,208.0951557093426 0,28.4269031141868 32.0268166089966,0 24.082179930796,0 -4.0964532871974,-28.4269031141868 -19.9857266435986,0 -32.0268166089966,0 z"
     id="path4489"
     style="fill:#e9e9e9;stroke:#000000;stroke-width:3;stroke-linecap:round;stroke-linejoin:round" />
  <path
     d="m 166.4906334915977,236.5220588235294 0,28.5510380622837 28.1786332179931,0 -4.0964532871971,-28.5510380622837 -24.082179930796,0 z"
     id="path4491"
     style="fill:#e9e9e9;stroke:#000000;stroke-width:3;stroke-linecap:round;stroke-linejoin:round" />
  <path
     d="m 134.5879518306981,265.0730968858131 0,28.4269031141869 32.0268166089966,0 32.0268166089965,0 -3.9723183391004,-28.4269031141869 -28.0544982698961,0 -32.0268166089966,0 z"
     id="path4493"
     style="fill:#e9e9e9;stroke:#000000;stroke-width:3;stroke-linecap:round;stroke-linejoin:round" />
  <path
     d="m 38.38336705561165,179.6682525951557 0,28.4269031141869 43.81963667820058,0 c 4.46397217993082,-6.3919368858132 11.8552251903116,-10.5514705882353 20.23399653979257,-10.5514705882353 l 0,-17.8754325259516 -64.05363321799308,0 z"
     id="path4495"
     style="fill:#e9e9e9;stroke:#000000;stroke-width:3;stroke-linecap:round;stroke-linejoin:round" />
  <path
     d="m 102.4370002736048,179.6682525951557 0,17.8754325259516 c 8.3844517647058,0 15.8590042906574,4.1522246366782 20.3581314878893,10.5514705882353 l 43.6955017301036,0 0,-28.4269031141869 -64.0536332179929,0 z"
     id="path4497"
     style="fill:#e9e9e9;stroke:#000000;stroke-width:3;stroke-linecap:round;stroke-linejoin:round" />
  <path
     d="m 38.38336705561165,236.6461937716263 0,28.4269031141868 39.35077854671271,0 0,-28.4269031141868 -39.35077854671271,0 z"
     id="path4499"
     style="fill:#e9e9e9;stroke:#000000;stroke-width:3;stroke-linecap:round;stroke-linejoin:round" />
  <path
     d="m 127.263989892982,236.6461937716263 0,28.4269031141868 39.2266435986157,0 0,-28.4269031141868 -39.2266435986157,0 z"
     id="path4501"
     style="fill:#e9e9e9;stroke:#000000;stroke-width:3;stroke-linecap:round;stroke-linejoin:round" />
  <path
     d="m 70.41018366460821,208.0951557093426 0,28.4269031141868 7.32396193771615,0 0,-14.1513840830449 c 0,-5.2919622145329 1.64946546712802,-10.2384121799308 4.46885813148786,-14.2755190311419 l -11.79282006920401,0 z m 52.38494809688589,0 c 2.8366325259512,4.0346440138408 4.4688581314879,8.9892372318339 4.4688581314879,14.2755190311419 l 0,14.1513840830449 7.1998269896191,0 0,-28.4269031141868 -11.668685121107,0 z"
     id="path4503"
     style="fill:#e9e9e9;stroke:#000000;stroke-width:3;stroke-linecap:round;stroke-linejoin:round" />
  <path
     d="m 70.53431861270496,265.0730968858131 0,28.4269031141869 7.1998269896194,0 0,-28.4269031141869 -7.1998269896194,0 z m 56.72967128027703,0 0,28.4269031141869 7.3239619377161,0 0,-28.4269031141869 -7.3239619377161,0 z"
     id="path4505"
     style="fill:#e9e9e9;stroke:#000000;stroke-width:3;stroke-linecap:round;stroke-linejoin:round" />
</svg>
