<?xml version="1.0" encoding="utf-8"?>
<!-- Generator: Adobe Illustrator 16.0.4, SVG Export Plug-In . SVG Version: 6.00 Build 0)  -->
<!DOCTYPE svg PUBLIC "-//W3C//DTD SVG 1.1//EN" "http://www.w3.org/Graphics/SVG/1.1/DTD/svg11.dtd">
<svg version="1.1" id="Layer_1" xmlns="http://www.w3.org/2000/svg" xmlns:xlink="http://www.w3.org/1999/xlink" x="0px" y="0px"
	 width="244px" height="139px" viewBox="0 0 244 139" enable-background="new 0 0 244 139" xml:space="preserve">
<path opacity="0.4" fill="#FFFFFF" d="M11.814,109.836C11.814,49.728,60.542,1,120.65,1c60.108,0,108.836,48.728,108.836,108.836"/>
<path fill="#BED73E" d="M165.592,90.645c0,0-5.576-0.286-13.446,4.81c-7.872,5.095-11.18,7.844-22.092,9.79h35.538V90.645z"/>
<path fill="#9CBF3C" d="M165.592,90.645c0,0,5.576-0.286,13.446,4.81c7.872,5.095,11.18,7.844,22.092,9.79h-35.538V90.645z"/>
<path fill="#BED73E" d="M136.39,90.8c0,0-5.575-0.286-13.446,4.81c-7.871,5.096-11.179,7.844-22.091,9.79h35.537V90.8z"/>
<path fill="#9CBF3C" d="M136.39,90.8c0,0,5.577-0.286,13.447,4.81c7.871,5.096,11.179,7.844,22.092,9.79H136.39V90.8z"/>
<path fill="#BED73E" d="M192.983,96.235c0,0-5.282-0.195-12.739,3.275c-7.458,3.468-10.593,5.341-20.933,6.665h33.672V96.235z"/>
<path fill="#9CBF3C" d="M192.983,96.235c0,0,5.284-0.195,12.74,3.275c7.458,3.468,10.593,5.341,20.932,6.665h-33.672V96.235z"/>
<path fill="#BED73E" d="M85.813,96.273c0,0-8.116-0.193-19.572,3.263c-11.455,3.456-16.27,5.319-32.152,6.64h51.724V96.273z"/>
<path fill="#9CBF3C" d="M85.813,96.273c0,0,8.115-0.193,19.571,3.263c11.455,3.456,16.27,5.319,32.152,6.64H85.813V96.273z"/>
<path fill="#9CBF3C" d="M1.742,109.751c0,0,0,5.059,4.66,5.059c3.729,0,229.262,0,229.262,0s5.126-0.457,5.126-5.059H1.742z"/>
<path fill="#D2DF48" d="M1.742,109.852c0,0,0-5.058,4.66-5.058c3.729,0,229.262,0,229.262,0s5.126,0.455,5.126,5.058H1.742z"/>
<path fill="#AAC738" d="M63.873,91.925c0,3.11,1.843,5.631,4.116,5.631V86.294C65.716,86.294,63.873,88.815,63.873,91.925z"/>
<path fill="#84A43E" d="M72.028,91.925c0,3.11-1.843,5.631-4.116,5.631V86.294C70.185,86.294,72.028,88.815,72.028,91.925z"/>
<polygon fill="#80572D" points="67.212,100.273 68.533,100.273 68.222,92.974 67.212,93.283 "/>
<polygon fill="#80572D" points="74.749,97.788 75.919,97.788 75.644,91.411 74.749,91.683 "/>
<polygon fill="#AAC738" points="75.309,77.804 71.095,95.982 75.309,95.982 "/>
<polyline fill="#84A43E" points="75.188,95.982 75.188,77.804 79.402,95.982 "/>
<path fill="#AAC738" d="M83.133,90.79c0,3.206,2.599,5.805,5.804,5.805V77.248C85.732,77.248,83.133,87.585,83.133,90.79z"/>
<path fill="#84A43E" d="M94.657,90.79c0,3.206-2.598,5.805-5.804,5.805V77.248C92.059,77.248,94.657,87.585,94.657,90.79z"/>
<polygon fill="#80572D" points="88.223,98.886 89.82,98.886 89.445,91.429 88.223,91.745 "/>
<polygon fill="#80572D" points="95.019,97.788 96.189,97.788 95.914,91.411 95.019,91.683 "/>
<polygon fill="#AAC738" points="95.579,77.804 91.366,95.982 95.579,95.982 "/>
<polyline fill="#84A43E" points="95.459,95.982 95.459,77.804 99.672,95.982 "/>
<path fill="#AAC738" d="M104.063,91.911c0,3.853,2.283,6.975,5.1,6.975v-13.95C106.347,84.936,104.063,88.059,104.063,91.911z"/>
<path fill="#84A43E" d="M114.166,91.911c0,3.853-2.283,6.975-5.099,6.975v-13.95C111.883,84.936,114.166,88.059,114.166,91.911z"/>
<polygon fill="#80572D" points="108.201,102.254 109.836,102.254 109.452,93.21 108.201,93.595 "/>
<path fill="#AAC738" d="M125.383,85.685c0,2.512,1.488,4.548,3.325,4.548v-9.097C126.871,81.136,125.383,83.172,125.383,85.685z"/>
<path fill="#84A43E" d="M131.971,85.685c0,2.512-1.488,4.548-3.326,4.548v-9.097C130.482,81.136,131.971,83.172,131.971,85.685z"/>
<polygon fill="#80572D" points="128.081,92.856 129.147,92.391 128.896,86.532 128.081,86.8 "/>
<path fill="#AAC738" d="M133.863,88.42c0,1.588,1.287,2.874,2.874,2.874v-9.58C135.15,81.714,133.863,86.833,133.863,88.42z"/>
<path fill="#84A43E" d="M139.569,88.42c0,1.588-1.286,2.874-2.874,2.874v-9.58C138.283,81.714,139.569,86.833,139.569,88.42z"/>
<polygon fill="#80572D" points="136.383,92.43 137.175,92.43 136.988,88.737 136.383,88.894 "/>
<path fill="#8C6338" d="M83.751,122.33v9.48c0.002,0,0.004,0,0.006,0c16.465-0.291,24.231-4.837,33.706-7.062
	c9.476-2.226,26.562-2.419,26.562-2.419H83.751z"/>
<path fill="#795027" d="M83.91,122.33v9.48c-0.002,0-0.004,0-0.007,0c-16.464-0.291-24.231-4.837-33.706-7.062
	c-9.475-2.226-26.561-2.419-26.561-2.419H83.91z"/>
<path fill="#8C6338" d="M157.918,122.175v15.223c0.002,0,0.005,0,0.007,0c16.464-0.468,24.231-7.768,33.706-11.34
	c9.476-3.572,26.561-3.883,26.561-3.883H157.918z"/>
<path fill="#795027" d="M158.077,122.175v15.223c-0.003,0-0.005,0-0.007,0c-16.465-0.468-24.231-7.768-33.707-11.34
	c-9.474-3.572-26.56-3.883-26.56-3.883H158.077z"/>
<path fill="#A0DADD" d="M87.957,114.72c-1.294-0.044-2.62-0.066-3.969-0.066s-2.675,0.022-3.969,0.066h-46.9h-8.09
	c-0.119-0.012-0.239-0.019-0.361-0.019c-2.109,0-3.819,1.71-3.819,3.819s1.71,3.818,3.819,3.818c0.075,0,0.149-0.003,0.223-0.007
	c3.429,0.02,33.297,0.592,37.81,1.148c4.513,0.559,7.405,1.7,12.52,2.102c2.018,0.279,4.487,0.366,7.085,0.321
	c0.557,0.007,1.117,0.011,1.683,0.011c10.312,0,19.628-3.194,23.367-3.215c3.738-0.021,10.728-0.059,10.728-0.059v-7.921H87.957z"/>
<path fill="#A0DADD" d="M154.109,114.72c1.294-0.044,2.619-0.066,3.97-0.066c1.349,0,2.675,0.022,3.969,0.066h46.9h8.09
	c0.119-0.012,0.24-0.019,0.361-0.019c2.108,0,3.819,1.71,3.819,3.819s-1.711,3.818-3.819,3.818c-0.074,0-0.149-0.003-0.223-0.007
	c-3.429,0.02-33.297,0.592-37.811,1.148c-4.513,0.559-7.404,1.7-12.52,2.102c-2.018,0.279-4.487,0.366-7.086,0.321
	c-0.557,0.007-1.116,0.011-1.682,0.011c-10.312,0-19.629-3.194-23.366-3.215c-3.739-0.021-16.941-0.059-16.941-0.059v-7.921H154.109
	z"/>
<path fill="#4CC2C0" d="M207.551,112.877l-2.486-0.006H32.652l2.485,0.003c-0.919,0.027-1.656,0.779-1.656,1.705
	c0,0.942,0.764,1.707,1.708,1.707c0.067,0,0.133-0.004,0.198-0.012c0.548,0.013,1.784,0.021,1.906,0.021
	c0.066,0,0.131-0.003,0.195-0.007c3.02,0.018,24.657,0.521,28.63,1.012c3.974,0.491,6.52,1.496,11.023,1.851
	c1.777,0.244,5.504,0.322,7.792,0.281c0.49,0.007-0.57,0.011-0.072,0.011c9.079,0,17.281-2.812,20.573-2.831
	c3.052-0.017,8.564-0.046,9.35-0.051c1.47,0.005,18.519,0.034,21.571,0.051c3.292,0.019,11.493,2.831,20.573,2.831
	c0.498,0,0.991-0.004,1.481-0.011c2.287,0.041,4.462-0.037,6.237-0.281c4.503-0.354,7.05-1.359,11.024-1.851
	c3.968-0.49,28.8-0.993,31.878-1.012v-0.008c0.884-0.064,1.581-0.801,1.581-1.701C209.132,113.678,208.435,112.941,207.551,112.877z
	"/>
</svg>
